<svg width="57" height="57" viewBox="0 0 57 57" fill="none" xmlns="http://www.w3.org/2000/svg">
<g clip-path="url(#clip0_24_15)">
<path d="M0 28.4993C0 36.0579 3.00267 43.307 8.34746 48.6518C13.6922 53.9966 20.9413 56.9993 28.5 56.9993C36.0587 56.9993 43.3078 53.9966 48.6525 48.6518C53.9973 43.307 57 36.0579 57 28.4993C57 20.9406 53.9973 13.6915 48.6525 8.34672C43.3078 3.00194 36.0587 -0.000732422 28.5 -0.000732422C20.9413 -0.000732422 13.6922 3.00194 8.34746 8.34672C3.00267 13.6915 0 20.9406 0 28.4993ZM21.033 38.485C20.8687 38.6551 20.6721 38.7908 20.4548 38.8841C20.2375 38.9775 20.0038 39.0266 19.7672 39.0287C19.5307 39.0307 19.2962 38.9857 19.0773 38.8961C18.8584 38.8065 18.6595 38.6743 18.4922 38.507C18.325 38.3398 18.1927 38.1409 18.1032 37.922C18.0136 37.7031 17.9685 37.4685 17.9706 37.232C17.9726 36.9955 18.0218 36.7618 18.1151 36.5445C18.2085 36.3271 18.3442 36.1306 18.5143 35.9663L33.1063 21.3743H23.2453C22.7729 21.3743 22.3198 21.1866 21.9858 20.8526C21.6517 20.5185 21.4641 20.0654 21.4641 19.593C21.4641 19.1206 21.6517 18.6675 21.9858 18.3335C22.3198 17.9994 22.7729 17.8118 23.2453 17.8118H37.4062C37.8787 17.8118 38.3317 17.9994 38.6658 18.3335C38.9998 18.6675 39.1875 19.1206 39.1875 19.593V33.754C39.1875 34.2264 38.9998 34.6794 38.6658 35.0135C38.3317 35.3475 37.8787 35.5352 37.4062 35.5352C36.9338 35.5352 36.4808 35.3475 36.1467 35.0135C35.8127 34.6794 35.625 34.2264 35.625 33.754V23.893L21.033 38.485Z" fill="#D9D9D9"/>
</g>
<defs>
<clipPath id="clip0_24_15">
<rect width="57" height="57" fill="white" transform="translate(0 -0.000732422)"/>
</clipPath>
</defs>
</svg>
