<svg width="53" height="56" viewBox="0 0 53 56" fill="none" xmlns="http://www.w3.org/2000/svg">
<path d="M32.2108 -0.000732422H8.83333C6.49059 -0.000732422 4.24379 0.736766 2.58722 2.04952C0.930652 3.36227 0 5.14275 0 6.99927V48.9993C0 50.8558 0.930652 52.6363 2.58722 53.949C4.24379 55.2618 6.49059 55.9993 8.83333 55.9993H44.1667C46.5094 55.9993 48.7562 55.2618 50.4128 53.949C52.0693 52.6363 53 50.8558 53 48.9993V16.4738C52.9997 15.5456 52.5343 14.6555 51.7059 13.9993L35.3333 1.02477C34.5052 0.368345 33.382 -0.000534191 32.2108 -0.000732422ZM33.125 12.2493V5.24927L46.375 15.7493H37.5417C36.3703 15.7493 35.2469 15.3805 34.4186 14.7241C33.5903 14.0678 33.125 13.1775 33.125 12.2493ZM11.0417 31.4993C10.456 31.4993 9.89428 31.3149 9.48014 30.9867C9.066 30.6585 8.83333 30.2134 8.83333 29.7493C8.83333 29.2851 9.066 28.84 9.48014 28.5118C9.89428 28.1836 10.456 27.9993 11.0417 27.9993H41.9583C42.544 27.9993 43.1057 28.1836 43.5199 28.5118C43.934 28.84 44.1667 29.2851 44.1667 29.7493C44.1667 30.2134 43.934 30.6585 43.5199 30.9867C43.1057 31.3149 42.544 31.4993 41.9583 31.4993H11.0417ZM8.83333 36.7493C8.83333 36.2851 9.066 35.84 9.48014 35.5118C9.89428 35.1836 10.456 34.9993 11.0417 34.9993H41.9583C42.544 34.9993 43.1057 35.1836 43.5199 35.5118C43.934 35.84 44.1667 36.2851 44.1667 36.7493C44.1667 37.2134 43.934 37.6585 43.5199 37.9867C43.1057 38.3149 42.544 38.4993 41.9583 38.4993H11.0417C10.456 38.4993 9.89428 38.3149 9.48014 37.9867C9.066 37.6585 8.83333 37.2134 8.83333 36.7493ZM11.0417 45.4993C10.456 45.4993 9.89428 45.3149 9.48014 44.9867C9.066 44.6585 8.83333 44.2134 8.83333 43.7493C8.83333 43.2851 9.066 42.84 9.48014 42.5118C9.89428 42.1836 10.456 41.9993 11.0417 41.9993H28.7083C29.294 41.9993 29.8557 42.1836 30.2699 42.5118C30.684 42.84 30.9167 43.2851 30.9167 43.7493C30.9167 44.2134 30.684 44.6585 30.2699 44.9867C29.8557 45.3149 29.294 45.4993 28.7083 45.4993H11.0417Z" fill="#D9D9D9"/>
</svg>
