<svg width="100" height="99" viewBox="0 0 100 99" fill="none" xmlns="http://www.w3.org/2000/svg">
<g clip-path="url(#clip0_60_167)">
<path d="M100 49.5304C100 22.1715 77.6125 -0.00610352 50 -0.00610352C22.375 5.00837e-05 -0.0125122 22.1715 -0.0125122 49.5365C-0.0125122 74.2555 18.275 94.747 42.175 98.4638V63.8498H29.4875V49.5365H42.1875V38.6139C42.1875 26.2021 49.6562 19.347 61.075 19.347C66.55 19.347 72.2687 20.3131 72.2687 20.3131V32.4972H65.9625C59.7562 32.4972 57.8187 36.3186 57.8187 40.2384V49.5304H71.6812L69.4687 63.8436H57.8125V98.4576C81.7125 94.7409 100 74.2494 100 49.5304Z" fill="#5D519D"/>
</g>
<defs>
<clipPath id="clip0_60_167">
<rect width="100" height="98.4576" fill="white"/>
</clipPath>
</defs>
</svg>
