<svg width="152" height="142" viewBox="0 0 152 142" fill="none" xmlns="http://www.w3.org/2000/svg">
<path d="M58.4615 136.929V101.38C58.4615 98.8956 61.3846 96.3601 64.3077 96.3601H87.6923C90.6154 96.3601 93.5385 98.8956 93.5385 101.431V136.929C93.5385 138.274 94.1544 139.564 95.2507 140.515C96.3471 141.466 97.8341 142 99.3846 142H146.154C147.704 142 149.191 141.466 150.288 140.515C151.384 139.564 152 138.274 152 136.929V65.9334C152.001 65.267 151.851 64.6069 151.558 63.9909C151.265 63.3748 150.835 62.8149 150.293 62.3431L136.187 50.116C135.091 49.1663 134.462 47.7877 134.462 46.3377V15.2224C134.462 13.8774 133.846 12.5876 132.749 11.6366C131.653 10.6856 130.166 10.1513 128.615 10.1513H116.923C115.373 10.1513 113.886 10.6856 112.789 11.6366C111.693 12.5876 111.077 13.8774 111.077 15.2224V17.3775C111.077 21.6635 106.037 23.963 102.8 21.1539L80.1391 1.48983C79.596 1.01757 78.9509 0.642891 78.2406 0.387242C77.5304 0.131593 76.769 0 76 0C75.231 0 74.4696 0.131593 73.7594 0.387242C73.0491 0.642891 72.404 1.01757 71.8609 1.48983L1.70709 62.3431C1.16454 62.8149 0.734521 63.3748 0.441609 63.9909C0.148696 64.6069 -0.00136273 65.267 9.32456e-06 65.9334V136.929C9.32456e-06 138.274 0.615941 139.564 1.71231 140.515C2.80867 141.466 4.29567 142 5.84616 142H52.6154C54.1659 142 55.6529 141.466 56.7492 140.515C57.8456 139.564 58.4615 138.274 58.4615 136.929Z" fill="url(#paint0_linear_19_16)"/>
<defs>
<linearGradient id="paint0_linear_19_16" x1="194.697" y1="80.1094" x2="-76.3163" y2="95.3538" gradientUnits="userSpaceOnUse">
<stop stop-color="#7262AD"/>
<stop offset="1" stop-color="#7262AD" stop-opacity="0"/>
</linearGradient>
</defs>
</svg>
