<svg width="100" height="99" viewBox="0 0 100 99" fill="none" xmlns="http://www.w3.org/2000/svg">
<g clip-path="url(#clip0_60_165)">
<path d="M50 0C36.4313 0 34.725 0.061536 29.3938 0.295373C24.0625 0.541517 20.4312 1.3661 17.25 2.58451C13.9131 3.82027 10.8906 5.7587 8.39375 8.26428C5.85048 10.7239 3.88192 13.6994 2.625 16.9839C1.3875 20.11 0.54375 23.6914 0.3 28.9219C0.0625 34.1832 0 35.857 0 49.2349C0 62.6006 0.0625 64.2743 0.3 69.5234C0.55 74.7662 1.3875 78.3415 2.625 81.4736C3.90625 84.7104 5.6125 87.4549 8.39375 90.1933C11.1688 92.9316 13.9563 94.6177 17.2437 95.8731C20.4312 97.0915 24.0563 97.9222 29.3813 98.1622C34.7188 98.396 36.4188 98.4576 50 98.4576C63.5812 98.4576 65.275 98.396 70.6125 98.1622C75.9313 97.9161 79.575 97.0915 82.7562 95.8731C86.091 94.6367 89.1114 92.6983 91.6062 90.1933C94.3875 87.4549 96.0938 84.7104 97.375 81.4736C98.6062 78.3415 99.45 74.7662 99.7 69.5234C99.9375 64.2743 100 62.6006 100 49.2288C100 35.857 99.9375 34.1832 99.7 28.9281C99.45 23.6914 98.6062 20.11 97.375 16.9839C96.1183 13.6993 94.1497 10.7237 91.6062 8.26428C89.1102 5.75777 86.0875 3.8192 82.75 2.58451C79.5625 1.3661 75.925 0.535363 70.6062 0.295373C65.2688 0.061536 63.575 0 49.9875 0H50.0063H50ZM45.5187 8.87349H50.0063C63.3563 8.87349 64.9375 8.91656 70.2062 9.15656C75.0812 9.37193 77.7312 10.1781 79.4938 10.8488C81.825 11.7411 83.4938 12.8118 85.2438 14.5348C86.9938 16.2578 88.075 17.8947 88.9813 20.1961C89.6688 21.9253 90.4812 24.5344 90.7 29.3342C90.9437 34.5217 90.9938 36.0786 90.9938 49.2165C90.9938 62.3544 90.9437 63.9174 90.7 69.1049C90.4812 73.9047 89.6625 76.5077 88.9813 78.243C88.1796 80.3805 86.9002 82.3132 85.2375 83.8982C83.4875 85.6212 81.825 86.6857 79.4875 87.578C77.7375 88.2549 75.0875 89.0549 70.2062 89.2764C64.9375 89.5103 63.3563 89.5656 50.0063 89.5656C36.6563 89.5656 35.0688 89.5103 29.8 89.2764C24.925 89.0549 22.2812 88.2549 20.5187 87.578C18.3469 86.7899 16.382 85.5324 14.7687 83.8982C13.1047 82.3107 11.8233 80.3762 11.0188 78.2369C10.3375 76.5077 9.51875 73.8986 9.3 69.0988C9.0625 63.9113 9.0125 62.3544 9.0125 49.2042C9.0125 36.0601 9.0625 34.5094 9.3 29.3219C9.525 24.5221 10.3375 21.913 11.025 20.1777C11.9313 17.8824 13.0187 16.2393 14.7687 14.5163C16.5187 12.7933 18.1812 11.7288 20.5187 10.8365C22.2812 10.1596 24.925 9.35962 29.8 9.13809C34.4125 8.92887 36.2 8.86734 45.5187 8.86118V8.87349ZM76.6937 17.0455C75.9058 17.0455 75.1256 17.1983 74.3976 17.4951C73.6697 17.792 73.0083 18.2272 72.4511 18.7757C71.894 19.3243 71.452 19.9755 71.1505 20.6922C70.8489 21.409 70.6937 22.1771 70.6937 22.9529C70.6937 23.7287 70.8489 24.4969 71.1505 25.2136C71.452 25.9303 71.894 26.5816 72.4511 27.1301C73.0083 27.6787 73.6697 28.1138 74.3976 28.4107C75.1256 28.7076 75.9058 28.8604 76.6937 28.8604C78.285 28.8604 79.8112 28.238 80.9364 27.1301C82.0616 26.0223 82.6937 24.5197 82.6937 22.9529C82.6937 21.3862 82.0616 19.8836 80.9364 18.7757C79.8112 17.6679 78.285 17.0455 76.6937 17.0455ZM50.0063 23.9498C46.6004 23.8975 43.2181 24.5128 40.0561 25.7598C36.8941 27.0069 34.0157 28.8608 31.5884 31.2137C29.1612 33.5665 27.2335 36.3713 25.9178 39.4646C24.602 42.558 23.9244 45.8782 23.9244 49.2319C23.9244 52.5856 24.602 55.9057 25.9178 58.9991C27.2335 62.0925 29.1612 64.8972 31.5884 67.2501C34.0157 69.6029 36.8941 71.4568 40.0561 72.7039C43.2181 73.951 46.6004 74.5662 50.0063 74.5139C56.7471 74.4104 63.1763 71.7012 67.9061 66.9712C72.6359 62.2411 75.2869 55.8696 75.2869 49.2319C75.2869 42.5941 72.6359 36.2226 67.9061 31.4926C63.1763 26.7625 56.7471 24.0534 50.0063 23.9498ZM50.0063 32.8171C54.4271 32.8171 58.6668 34.5462 61.7928 37.624C64.9188 40.7018 66.675 44.8762 66.675 49.2288C66.675 53.5814 64.9188 57.7558 61.7928 60.8336C58.6668 63.9114 54.4271 65.6404 50.0063 65.6404C45.5854 65.6404 41.3457 63.9114 38.2197 60.8336C35.0937 57.7558 33.3375 53.5814 33.3375 49.2288C33.3375 44.8762 35.0937 40.7018 38.2197 37.624C41.3457 34.5462 45.5854 32.8171 50.0063 32.8171Z" fill="#5D519D"/>
</g>
<defs>
<clipPath id="clip0_60_165">
<rect width="100" height="98.4576" fill="white"/>
</clipPath>
</defs>
</svg>
