<svg width="576" height="167" viewBox="0 0 576 167" fill="none" xmlns="http://www.w3.org/2000/svg">
<path d="M10.2857 29.6602H29.8001V109.002H85.758V126.167H10.2857V29.6602ZM98.9931 103.198C98.9931 99.6992 99.7523 96.5088 101.271 93.6279C102.79 90.7464 105.067 88.2762 108.104 86.218C111.141 84.1192 114.917 82.5137 119.431 81.4021C123.987 80.2499 129.281 79.6734 135.314 79.6734C139.787 79.6734 144.486 80.0029 149.411 80.6612C154.377 81.3202 159.486 82.3287 164.739 83.6866C164.534 81.3815 163.836 79.2621 162.646 77.327C161.456 75.3514 159.794 73.6634 157.66 72.2642C155.567 70.8231 153.023 69.7121 150.026 68.93C147.072 68.1479 143.706 67.7565 139.931 67.7565C137.879 67.7565 135.621 67.8803 133.159 68.1272C130.697 68.3742 128.152 68.7443 125.526 69.2388C122.899 69.7327 120.293 70.3498 117.707 71.0907C115.163 71.8315 112.783 72.7168 110.566 73.7459L105.026 58.7419C107.776 57.754 110.71 56.8485 113.83 56.0252C116.989 55.2019 120.211 54.5021 123.494 53.9258C126.777 53.3084 130.06 52.835 133.344 52.5058C136.627 52.1764 139.807 52.0118 142.885 52.0118C156.47 52.0118 166.566 55.49 173.173 62.4466C179.78 69.4033 183.084 80.0642 183.084 94.4307V126.167H164.862V119.314C162.975 120.425 160.902 121.474 158.645 122.462C156.429 123.451 154.008 124.315 151.381 125.056C148.754 125.796 145.922 126.373 142.885 126.785C139.89 127.237 136.709 127.464 133.344 127.464C127.68 127.464 122.694 126.846 118.385 125.611C114.116 124.377 110.546 122.669 107.674 120.487C104.801 118.305 102.625 115.753 101.148 112.83C99.7118 109.866 98.9931 106.656 98.9931 103.198ZM118.2 102.581C118.2 103.774 118.508 104.927 119.124 106.038C119.739 107.108 120.724 108.076 122.078 108.94C123.433 109.764 125.156 110.443 127.249 110.978C129.384 111.472 131.949 111.719 134.944 111.719C138.146 111.719 141.244 111.431 144.24 110.855C147.236 110.278 150.026 109.517 152.612 108.57C155.197 107.623 157.537 106.532 159.63 105.297C161.723 104.063 163.467 102.786 164.862 101.469V98.2588C162.072 97.4767 159.301 96.8177 156.552 96.2825C153.843 95.7473 151.237 95.336 148.734 95.0477C146.271 94.7183 143.932 94.4919 141.716 94.3688C139.541 94.245 137.633 94.1831 135.991 94.1831C132.584 94.1831 129.753 94.41 127.495 94.8627C125.238 95.3153 123.412 95.933 122.017 96.7152C120.621 97.456 119.637 98.3407 119.062 99.3698C118.487 100.399 118.2 101.469 118.2 102.581ZM218.604 138.516C220.903 139.34 223.241 140.018 225.622 140.554C228.002 141.13 230.301 141.583 232.516 141.912C234.774 142.282 236.928 142.529 238.98 142.653C241.032 142.817 242.859 142.9 244.459 142.9C249.302 142.9 253.508 142.303 257.079 141.109C260.69 139.957 263.687 138.392 266.067 136.417C268.488 134.441 270.294 132.136 271.484 129.501C272.674 126.908 273.269 124.15 273.269 121.227V118.078C271.71 119.149 269.883 120.178 267.791 121.166C265.698 122.154 263.399 123.018 260.896 123.759C258.392 124.5 255.725 125.097 252.893 125.549C250.102 126.003 247.209 126.229 244.213 126.229C238.262 126.229 232.763 125.344 227.715 123.574C222.667 121.763 218.296 119.252 214.603 116.041C210.909 112.789 208.016 108.899 205.923 104.371C203.871 99.843 202.845 94.8214 202.845 89.3053C202.845 83.666 203.932 78.5618 206.107 73.9929C208.283 69.3826 211.278 65.4515 215.095 62.1996C218.953 58.9478 223.508 56.4368 228.762 54.6668C234.014 52.8968 239.719 52.0118 245.875 52.0118C248.502 52.0118 251.108 52.1764 253.693 52.5058C256.279 52.835 258.741 53.2878 261.081 53.8641C263.46 54.4404 265.677 55.1402 267.729 55.9634C269.822 56.7456 271.668 57.61 273.269 58.5567V53.3084H291.491V117.831C291.491 124.459 290.485 130.325 288.475 135.429C286.464 140.533 283.509 144.814 279.61 148.272C275.752 151.77 270.95 154.405 265.205 156.175C259.459 157.986 252.873 158.892 245.444 158.892C242.776 158.892 240.006 158.768 237.133 158.521C234.261 158.316 231.368 157.986 228.454 157.533C225.581 157.122 222.728 156.608 219.897 155.99C217.106 155.413 214.418 154.734 211.833 153.952L218.604 138.516ZM221.99 89.1202C221.99 92.043 222.564 94.8008 223.714 97.3941C224.904 99.9462 226.586 102.189 228.762 104.124C230.936 106.018 233.563 107.521 236.641 108.631C239.719 109.702 243.187 110.237 247.045 110.237C249.548 110.237 252.031 110.011 254.493 109.558C256.997 109.064 259.377 108.385 261.635 107.521C263.933 106.656 266.067 105.606 268.037 104.371C270.048 103.137 271.792 101.757 273.269 100.234V76.2154C271.422 74.7337 269.473 73.4783 267.421 72.4492C265.369 71.4202 263.276 70.5761 261.142 69.9178C259.008 69.2588 256.853 68.7855 254.678 68.4973C252.503 68.1685 250.39 68.0034 248.338 68.0034C244.152 68.0034 240.417 68.5592 237.133 69.6708C233.892 70.7825 231.142 72.3054 228.884 74.2398C226.668 76.1335 224.965 78.3561 223.775 80.9082C222.585 83.4603 221.99 86.198 221.99 89.1202ZM307.866 89.7379C307.866 84.51 308.912 79.6115 311.005 75.0426C313.14 70.4736 316.156 66.4804 320.055 63.0641C323.994 59.6476 328.735 56.9514 334.275 54.9755C339.856 52.9997 346.115 52.0118 353.051 52.0118C359.987 52.0118 366.224 52.9997 371.765 54.9755C377.346 56.9514 382.086 59.6476 385.985 63.0641C389.925 66.4804 392.941 70.4736 395.035 75.0426C397.169 79.6115 398.235 84.51 398.235 89.7379C398.235 94.9652 397.169 99.8637 395.035 104.433C392.941 109.002 389.925 112.995 385.985 116.411C382.086 119.828 377.346 122.524 371.765 124.5C366.224 126.476 359.987 127.464 353.051 127.464C346.115 127.464 339.856 126.476 334.275 124.5C328.735 122.524 323.994 119.828 320.055 116.411C316.156 112.995 313.14 109.002 311.005 104.433C308.912 99.8637 307.866 94.9652 307.866 89.7379ZM327.011 89.7379C327.011 92.6601 327.585 95.4391 328.735 98.0731C329.925 100.666 331.628 102.972 333.844 104.988C336.101 106.965 338.83 108.55 342.032 109.743C345.274 110.895 348.947 111.472 353.051 111.472C357.155 111.472 360.808 110.895 364.008 109.743C367.25 108.55 369.98 106.965 372.196 104.988C374.453 102.972 376.156 100.666 377.305 98.0731C378.495 95.4391 379.09 92.6601 379.09 89.7379C379.09 86.8151 378.495 84.0367 377.305 81.4021C376.156 78.7675 374.453 76.4624 372.196 74.4868C369.98 72.4699 367.25 70.885 364.008 69.7327C360.808 68.5386 357.155 67.9422 353.051 67.9422C348.947 67.9422 345.274 68.5386 342.032 69.7327C338.83 70.885 336.101 72.4699 333.844 74.4868C331.628 76.4624 329.925 78.7675 328.735 81.4021C327.585 84.0367 327.011 86.8151 327.011 89.7379ZM417.135 53.3084H435.357V59.4829C439.912 56.6838 444.344 54.7491 448.653 53.6789C453.004 52.5675 457.251 52.0118 461.396 52.0118C467.182 52.0118 472.498 52.938 477.34 54.7903C482.183 56.6427 486.328 59.4417 489.775 63.1876C492.443 61.1294 495.069 59.4005 497.655 58.001C500.24 56.5603 502.826 55.4078 505.411 54.5433C507.997 53.6377 510.624 52.9997 513.291 52.6292C515.959 52.2176 518.708 52.0118 521.54 52.0118C527.491 52.0118 532.888 52.835 537.73 54.4816C542.573 56.0869 546.697 58.4949 550.104 61.7057C553.551 64.9164 556.198 68.93 558.045 73.7459C559.933 78.5205 560.877 84.0573 560.877 90.355V126.167H542.716V93.3191C542.716 89.3259 542.142 85.7654 540.993 82.6369C539.885 79.4677 538.305 76.8125 536.253 74.6718C534.242 72.4905 531.82 70.8437 528.989 69.7327C526.198 68.5799 523.12 68.0034 519.755 68.0034C517.908 68.0034 516.02 68.1891 514.091 68.5592C512.163 68.8887 510.274 69.4239 508.428 70.1647C506.622 70.9056 504.919 71.8522 503.318 73.005C501.717 74.1167 500.322 75.4333 499.132 76.9569V126.167H480.972V93.3191C480.972 89.3259 480.398 85.7654 479.248 82.6369C478.141 79.4677 476.56 76.8125 474.508 74.6718C472.498 72.4905 470.055 70.8437 467.182 69.7327C464.351 68.5799 461.232 68.0034 457.826 68.0034C455.733 68.0034 453.619 68.2297 451.485 68.683C449.392 69.0944 447.361 69.6915 445.39 70.4736C443.462 71.2557 441.635 72.2023 439.912 73.3139C438.229 74.4249 436.71 75.6803 435.357 77.0801V126.167H417.135V53.3084Z" fill="url(#paint0_linear_12_31)"/>
<path d="M10.2857 29.6602H29.8001V109.002H85.758V126.167H10.2857V29.6602ZM98.9931 103.198C98.9931 99.6992 99.7523 96.5088 101.271 93.6279C102.79 90.7464 105.067 88.2762 108.104 86.218C111.141 84.1192 114.917 82.5137 119.431 81.4021C123.987 80.2499 129.281 79.6734 135.314 79.6734C139.787 79.6734 144.486 80.0029 149.411 80.6612C154.377 81.3202 159.486 82.3287 164.739 83.6866C164.534 81.3815 163.836 79.2621 162.646 77.327C161.456 75.3514 159.794 73.6634 157.66 72.2642C155.567 70.8231 153.023 69.7121 150.026 68.93C147.072 68.1479 143.706 67.7565 139.931 67.7565C137.879 67.7565 135.621 67.8803 133.159 68.1272C130.697 68.3742 128.152 68.7443 125.526 69.2388C122.899 69.7327 120.293 70.3498 117.707 71.0907C115.163 71.8315 112.783 72.7168 110.566 73.7459L105.026 58.7419C107.776 57.754 110.71 56.8485 113.83 56.0252C116.989 55.2019 120.211 54.5021 123.494 53.9258C126.777 53.3084 130.06 52.835 133.344 52.5058C136.627 52.1764 139.807 52.0118 142.885 52.0118C156.47 52.0118 166.566 55.49 173.173 62.4466C179.78 69.4033 183.084 80.0642 183.084 94.4307V126.167H164.862V119.314C162.975 120.425 160.902 121.474 158.645 122.462C156.429 123.451 154.008 124.315 151.381 125.056C148.754 125.796 145.922 126.373 142.885 126.785C139.89 127.237 136.709 127.464 133.344 127.464C127.68 127.464 122.694 126.846 118.385 125.611C114.116 124.377 110.546 122.669 107.674 120.487C104.801 118.305 102.625 115.753 101.148 112.83C99.7118 109.866 98.9931 106.656 98.9931 103.198ZM118.2 102.581C118.2 103.774 118.508 104.927 119.124 106.038C119.739 107.108 120.724 108.076 122.078 108.94C123.433 109.764 125.156 110.443 127.249 110.978C129.384 111.472 131.949 111.719 134.944 111.719C138.146 111.719 141.244 111.431 144.24 110.855C147.236 110.278 150.026 109.517 152.612 108.57C155.197 107.623 157.537 106.532 159.63 105.297C161.723 104.063 163.467 102.786 164.862 101.469V98.2588C162.072 97.4767 159.301 96.8177 156.552 96.2825C153.843 95.7473 151.237 95.336 148.734 95.0477C146.271 94.7183 143.932 94.4919 141.716 94.3688C139.541 94.245 137.633 94.1831 135.991 94.1831C132.584 94.1831 129.753 94.41 127.495 94.8627C125.238 95.3153 123.412 95.933 122.017 96.7152C120.621 97.456 119.637 98.3407 119.062 99.3698C118.487 100.399 118.2 101.469 118.2 102.581ZM218.604 138.516C220.903 139.34 223.241 140.018 225.622 140.554C228.002 141.13 230.301 141.583 232.516 141.912C234.774 142.282 236.928 142.529 238.98 142.653C241.032 142.817 242.859 142.9 244.459 142.9C249.302 142.9 253.508 142.303 257.079 141.109C260.69 139.957 263.687 138.392 266.067 136.417C268.488 134.441 270.294 132.136 271.484 129.501C272.674 126.908 273.269 124.15 273.269 121.227V118.078C271.71 119.149 269.883 120.178 267.791 121.166C265.698 122.154 263.399 123.018 260.896 123.759C258.392 124.5 255.725 125.097 252.893 125.549C250.102 126.003 247.209 126.229 244.213 126.229C238.262 126.229 232.763 125.344 227.715 123.574C222.667 121.763 218.296 119.252 214.603 116.041C210.909 112.789 208.016 108.899 205.923 104.371C203.871 99.843 202.845 94.8214 202.845 89.3053C202.845 83.666 203.932 78.5618 206.107 73.9929C208.283 69.3826 211.278 65.4515 215.095 62.1996C218.953 58.9478 223.508 56.4368 228.762 54.6668C234.014 52.8968 239.719 52.0118 245.875 52.0118C248.502 52.0118 251.108 52.1764 253.693 52.5058C256.279 52.835 258.741 53.2878 261.081 53.8641C263.46 54.4404 265.677 55.1402 267.729 55.9634C269.822 56.7456 271.668 57.61 273.269 58.5567V53.3084H291.491V117.831C291.491 124.459 290.485 130.325 288.475 135.429C286.464 140.533 283.509 144.814 279.61 148.272C275.752 151.77 270.95 154.405 265.205 156.175C259.459 157.986 252.873 158.892 245.444 158.892C242.776 158.892 240.006 158.768 237.133 158.521C234.261 158.316 231.368 157.986 228.454 157.533C225.581 157.122 222.728 156.608 219.897 155.99C217.106 155.413 214.418 154.734 211.833 153.952L218.604 138.516ZM221.99 89.1202C221.99 92.043 222.564 94.8008 223.714 97.3941C224.904 99.9462 226.586 102.189 228.762 104.124C230.936 106.018 233.563 107.521 236.641 108.631C239.719 109.702 243.187 110.237 247.045 110.237C249.548 110.237 252.031 110.011 254.493 109.558C256.997 109.064 259.377 108.385 261.635 107.521C263.933 106.656 266.067 105.606 268.037 104.371C270.048 103.137 271.792 101.757 273.269 100.234V76.2154C271.422 74.7337 269.473 73.4783 267.421 72.4492C265.369 71.4202 263.276 70.5761 261.142 69.9178C259.008 69.2588 256.853 68.7855 254.678 68.4973C252.503 68.1685 250.39 68.0034 248.338 68.0034C244.152 68.0034 240.417 68.5592 237.133 69.6708C233.892 70.7825 231.142 72.3054 228.884 74.2398C226.668 76.1335 224.965 78.3561 223.775 80.9082C222.585 83.4603 221.99 86.198 221.99 89.1202ZM307.866 89.7379C307.866 84.51 308.912 79.6115 311.005 75.0426C313.14 70.4736 316.156 66.4804 320.055 63.0641C323.994 59.6476 328.735 56.9514 334.275 54.9755C339.856 52.9997 346.115 52.0118 353.051 52.0118C359.987 52.0118 366.224 52.9997 371.765 54.9755C377.346 56.9514 382.086 59.6476 385.985 63.0641C389.925 66.4804 392.941 70.4736 395.035 75.0426C397.169 79.6115 398.235 84.51 398.235 89.7379C398.235 94.9652 397.169 99.8637 395.035 104.433C392.941 109.002 389.925 112.995 385.985 116.411C382.086 119.828 377.346 122.524 371.765 124.5C366.224 126.476 359.987 127.464 353.051 127.464C346.115 127.464 339.856 126.476 334.275 124.5C328.735 122.524 323.994 119.828 320.055 116.411C316.156 112.995 313.14 109.002 311.005 104.433C308.912 99.8637 307.866 94.9652 307.866 89.7379ZM327.011 89.7379C327.011 92.6601 327.585 95.4391 328.735 98.0731C329.925 100.666 331.628 102.972 333.844 104.988C336.101 106.965 338.83 108.55 342.032 109.743C345.274 110.895 348.947 111.472 353.051 111.472C357.155 111.472 360.808 110.895 364.008 109.743C367.25 108.55 369.98 106.965 372.196 104.988C374.453 102.972 376.156 100.666 377.305 98.0731C378.495 95.4391 379.09 92.6601 379.09 89.7379C379.09 86.8151 378.495 84.0367 377.305 81.4021C376.156 78.7675 374.453 76.4624 372.196 74.4868C369.98 72.4699 367.25 70.885 364.008 69.7327C360.808 68.5386 357.155 67.9422 353.051 67.9422C348.947 67.9422 345.274 68.5386 342.032 69.7327C338.83 70.885 336.101 72.4699 333.844 74.4868C331.628 76.4624 329.925 78.7675 328.735 81.4021C327.585 84.0367 327.011 86.8151 327.011 89.7379ZM417.135 53.3084H435.357V59.4829C439.912 56.6838 444.344 54.7491 448.653 53.6789C453.004 52.5675 457.251 52.0118 461.396 52.0118C467.182 52.0118 472.498 52.938 477.34 54.7903C482.183 56.6427 486.328 59.4417 489.775 63.1876C492.443 61.1294 495.069 59.4005 497.655 58.001C500.24 56.5603 502.826 55.4078 505.411 54.5433C507.997 53.6377 510.624 52.9997 513.291 52.6292C515.959 52.2176 518.708 52.0118 521.54 52.0118C527.491 52.0118 532.888 52.835 537.73 54.4816C542.573 56.0869 546.697 58.4949 550.104 61.7057C553.551 64.9164 556.198 68.93 558.045 73.7459C559.933 78.5205 560.877 84.0573 560.877 90.355V126.167H542.716V93.3191C542.716 89.3259 542.142 85.7654 540.993 82.6369C539.885 79.4677 538.305 76.8125 536.253 74.6718C534.242 72.4905 531.82 70.8437 528.989 69.7327C526.198 68.5799 523.12 68.0034 519.755 68.0034C517.908 68.0034 516.02 68.1891 514.091 68.5592C512.163 68.8887 510.274 69.4239 508.428 70.1647C506.622 70.9056 504.919 71.8522 503.318 73.005C501.717 74.1167 500.322 75.4333 499.132 76.9569V126.167H480.972V93.3191C480.972 89.3259 480.398 85.7654 479.248 82.6369C478.141 79.4677 476.56 76.8125 474.508 74.6718C472.498 72.4905 470.055 70.8437 467.182 69.7327C464.351 68.5799 461.232 68.0034 457.826 68.0034C455.733 68.0034 453.619 68.2297 451.485 68.683C449.392 69.0944 447.361 69.6915 445.39 70.4736C443.462 71.2557 441.635 72.2023 439.912 73.3139C438.229 74.4249 436.71 75.6803 435.357 77.0801V126.167H417.135V53.3084Z" fill="url(#paint1_linear_12_31)"/>
<path d="M311.707 137.695H316.931V140.705C318.084 139.843 319.302 139.1 320.584 138.474C321.867 137.849 323.143 137.371 324.414 137.04L325.949 141.837C323.937 142.038 322.166 142.492 320.637 143.2C319.12 143.896 317.884 144.881 316.931 146.156V158.581H311.707V137.695ZM328.861 148.068C328.861 146.651 329.149 145.301 329.725 144.014C330.301 142.716 331.131 141.572 332.213 140.581C333.296 139.589 334.62 138.799 336.184 138.209C337.761 137.619 339.549 137.324 341.549 137.324C343.537 137.324 345.325 137.624 346.914 138.227C348.514 138.817 349.867 139.63 350.973 140.669C352.09 141.707 352.943 142.929 353.531 144.333C354.132 145.737 354.431 147.241 354.431 148.846C354.431 149.047 354.425 149.265 354.414 149.501C354.414 149.726 354.402 149.932 354.378 150.121H334.684C334.908 150.746 335.266 151.318 335.761 151.838C336.267 152.357 336.896 152.805 337.649 153.183C338.401 153.561 339.273 153.856 340.261 154.068C341.249 154.269 342.343 154.369 343.543 154.369C344.743 154.369 345.937 154.245 347.125 153.997C348.314 153.738 349.449 153.413 350.532 153.024L352.296 157.024C351.613 157.343 350.919 157.626 350.213 157.873C349.52 158.109 348.79 158.31 348.025 158.476C347.272 158.629 346.478 158.747 345.643 158.83C344.82 158.912 343.949 158.953 343.031 158.953C340.69 158.953 338.637 158.67 336.872 158.103C335.107 157.537 333.631 156.764 332.443 155.785C331.255 154.805 330.361 153.655 329.761 152.333C329.16 151.012 328.861 149.59 328.861 148.068ZM348.89 146.032C348.702 145.454 348.408 144.917 348.008 144.422C347.619 143.914 347.131 143.478 346.543 143.112C345.955 142.734 345.272 142.439 344.496 142.227C343.719 142.014 342.867 141.908 341.937 141.908C340.949 141.908 340.049 142.02 339.237 142.244C338.425 142.469 337.714 142.769 337.102 143.147C336.49 143.525 335.978 143.961 335.566 144.457C335.167 144.952 334.872 145.478 334.684 146.032H348.89ZM359.073 151.997C359.073 150.994 359.29 150.08 359.726 149.254C360.161 148.428 360.813 147.72 361.684 147.13C362.555 146.528 363.637 146.068 364.932 145.749C366.237 145.419 367.755 145.253 369.484 145.253C370.767 145.253 372.114 145.348 373.525 145.537C374.949 145.725 376.414 146.014 377.92 146.404C377.861 145.743 377.661 145.135 377.319 144.581C376.979 144.014 376.502 143.531 375.89 143.13C375.29 142.716 374.561 142.398 373.702 142.173C372.855 141.95 371.89 141.837 370.808 141.837C370.22 141.837 369.572 141.873 368.866 141.943C368.161 142.014 367.432 142.12 366.678 142.262C365.925 142.404 365.178 142.581 364.437 142.793C363.708 143.005 363.025 143.259 362.39 143.554L360.802 139.253C361.59 138.97 362.431 138.71 363.326 138.474C364.231 138.238 365.155 138.038 366.096 137.873C367.037 137.695 367.979 137.56 368.92 137.465C369.861 137.371 370.773 137.324 371.655 137.324C375.549 137.324 378.443 138.321 380.337 140.315C382.231 142.309 383.178 145.366 383.178 149.484V158.581H377.955V156.617C377.414 156.936 376.82 157.236 376.173 157.519C375.537 157.803 374.843 158.051 374.09 158.263C373.338 158.476 372.526 158.641 371.655 158.759C370.796 158.888 369.884 158.953 368.92 158.953C367.296 158.953 365.867 158.776 364.631 158.422C363.408 158.068 362.385 157.579 361.56 156.953C360.737 156.328 360.113 155.596 359.69 154.758C359.278 153.908 359.073 152.988 359.073 151.997ZM364.579 151.82C364.579 152.162 364.667 152.493 364.843 152.811C365.02 153.118 365.302 153.395 365.69 153.643C366.078 153.879 366.573 154.074 367.173 154.228C367.785 154.369 368.519 154.44 369.378 154.44C370.296 154.44 371.184 154.357 372.043 154.192C372.902 154.026 373.702 153.809 374.443 153.537C375.184 153.266 375.855 152.953 376.455 152.599C377.055 152.245 377.555 151.879 377.955 151.501V150.581C377.155 150.357 376.361 150.168 375.573 150.015C374.796 149.861 374.049 149.743 373.331 149.661C372.625 149.566 371.955 149.501 371.32 149.466C370.696 149.43 370.149 149.413 369.678 149.413C368.702 149.413 367.89 149.478 367.243 149.608C366.596 149.737 366.073 149.915 365.673 150.138C365.272 150.351 364.99 150.605 364.825 150.9C364.661 151.195 364.579 151.501 364.579 151.82ZM390.238 129.217H395.461V158.581H390.238V129.217ZM413.179 148.068C413.179 146.651 413.467 145.301 414.043 144.014C414.62 142.716 415.449 141.572 416.532 140.581C417.614 139.589 418.937 138.799 420.502 138.209C422.078 137.619 423.867 137.324 425.867 137.324C427.855 137.324 429.643 137.624 431.231 138.227C432.831 138.817 434.185 139.63 435.29 140.669C436.408 141.707 437.261 142.929 437.85 144.333C438.449 145.737 438.75 147.241 438.75 148.846C438.75 149.047 438.744 149.265 438.732 149.501C438.732 149.726 438.72 149.932 438.696 150.121H419.002C419.226 150.746 419.585 151.318 420.078 151.838C420.584 152.357 421.214 152.805 421.967 153.183C422.72 153.561 423.59 153.856 424.578 154.068C425.567 154.269 426.661 154.369 427.861 154.369C429.061 154.369 430.255 154.245 431.443 153.997C432.631 153.738 433.767 153.413 434.849 153.024L436.614 157.024C435.932 157.343 435.238 157.626 434.532 157.873C433.837 158.109 433.108 158.31 432.343 158.476C431.591 158.629 430.796 158.747 429.961 158.83C429.138 158.912 428.267 158.953 427.349 158.953C425.008 158.953 422.955 158.67 421.191 158.103C419.426 157.537 417.949 156.764 416.761 155.785C415.573 154.805 414.678 153.655 414.079 152.333C413.479 151.012 413.179 149.59 413.179 148.068ZM433.208 146.032C433.02 145.454 432.726 144.917 432.325 144.422C431.938 143.914 431.449 143.478 430.861 143.112C430.273 142.734 429.591 142.439 428.814 142.227C428.038 142.014 427.185 141.908 426.255 141.908C425.267 141.908 424.367 142.02 423.555 142.244C422.743 142.469 422.031 142.769 421.42 143.147C420.808 143.525 420.296 143.961 419.884 144.457C419.484 144.952 419.191 145.478 419.002 146.032H433.208ZM445.208 152.174C446.62 153.024 448.173 153.649 449.867 154.05C451.561 154.451 453.297 154.652 455.073 154.652C456.273 154.652 457.273 154.569 458.073 154.404C458.873 154.239 459.514 154.026 459.997 153.767C460.479 153.507 460.82 153.213 461.02 152.882C461.22 152.552 461.32 152.215 461.32 151.874C461.32 151.378 461.102 150.953 460.667 150.599C460.243 150.245 459.538 150.067 458.55 150.067C458.091 150.067 457.596 150.097 457.067 150.156C456.537 150.215 455.979 150.28 455.391 150.351C454.814 150.41 454.208 150.469 453.573 150.528C452.95 150.587 452.314 150.616 451.667 150.616C450.255 150.616 449.049 150.463 448.049 150.156C447.061 149.85 446.256 149.43 445.632 148.9C445.008 148.368 444.555 147.743 444.273 147.023C443.991 146.292 443.849 145.507 443.849 144.669C443.849 143.607 444.096 142.628 444.591 141.731C445.085 140.834 445.791 140.061 446.708 139.412C447.626 138.751 448.732 138.238 450.026 137.873C451.332 137.506 452.784 137.324 454.384 137.324C455.22 137.324 456.091 137.377 456.996 137.483C457.914 137.577 458.814 137.707 459.696 137.873C460.579 138.038 461.426 138.232 462.238 138.457C463.05 138.669 463.767 138.899 464.391 139.147L462.749 143.218C461.42 142.722 460.09 142.333 458.761 142.05C457.444 141.755 456.085 141.607 454.685 141.607C453.708 141.607 452.879 141.684 452.196 141.837C451.526 141.979 450.979 142.173 450.555 142.422C450.132 142.658 449.82 142.935 449.62 143.253C449.432 143.56 449.337 143.885 449.337 144.227C449.337 144.475 449.385 144.699 449.479 144.9C449.585 145.1 449.749 145.277 449.973 145.43C450.208 145.572 450.508 145.684 450.873 145.767C451.249 145.838 451.708 145.873 452.25 145.873C452.743 145.873 453.267 145.843 453.82 145.784C454.373 145.725 454.95 145.666 455.549 145.607C456.149 145.537 456.767 145.471 457.402 145.413C458.049 145.353 458.708 145.324 459.379 145.324C460.626 145.324 461.714 145.471 462.643 145.767C463.585 146.061 464.361 146.475 464.973 147.005C465.585 147.537 466.043 148.162 466.349 148.882C466.655 149.602 466.808 150.387 466.808 151.236C466.808 152.333 466.555 153.354 466.05 154.298C465.544 155.242 464.79 156.062 463.791 156.758C462.79 157.443 461.543 157.98 460.049 158.369C458.567 158.759 456.849 158.953 454.896 158.953C453.697 158.953 452.538 158.877 451.42 158.723C450.302 158.581 449.238 158.387 448.226 158.139C447.214 157.88 446.261 157.579 445.367 157.236C444.484 156.894 443.679 156.528 442.949 156.139L445.208 152.174ZM474.661 141.625H469.632V137.695H474.661V131.2H479.885V137.695H484.914V141.625H479.885V158.581H474.661V141.625ZM488.567 151.997C488.567 150.994 488.785 150.08 489.22 149.254C489.655 148.428 490.309 147.72 491.179 147.13C492.049 146.528 493.132 146.068 494.426 145.749C495.732 145.419 497.25 145.253 498.979 145.253C500.261 145.253 501.609 145.348 503.02 145.537C504.444 145.725 505.908 146.014 507.414 146.404C507.355 145.743 507.155 145.135 506.815 144.581C506.473 144.014 505.997 143.531 505.385 143.13C504.785 142.716 504.055 142.398 503.197 142.173C502.349 141.95 501.385 141.837 500.302 141.837C499.714 141.837 499.068 141.873 498.362 141.943C497.655 142.014 496.926 142.12 496.173 142.262C495.42 142.404 494.673 142.581 493.932 142.793C493.203 143.005 492.52 143.259 491.885 143.554L490.296 139.253C491.085 138.97 491.926 138.71 492.82 138.474C493.726 138.238 494.65 138.038 495.591 137.873C496.532 137.695 497.473 137.56 498.414 137.465C499.356 137.371 500.267 137.324 501.15 137.324C505.044 137.324 507.938 138.321 509.832 140.315C511.726 142.309 512.673 145.366 512.673 149.484V158.581H507.45V156.617C506.908 156.936 506.314 157.236 505.667 157.519C505.032 157.803 504.338 158.051 503.585 158.263C502.832 158.476 502.02 158.641 501.15 158.759C500.291 158.888 499.379 158.953 498.414 158.953C496.791 158.953 495.361 158.776 494.126 158.422C492.903 158.068 491.879 157.579 491.056 156.953C490.232 156.328 489.609 155.596 489.185 154.758C488.773 153.908 488.567 152.988 488.567 151.997ZM494.073 151.82C494.073 152.162 494.161 152.493 494.338 152.811C494.514 153.118 494.796 153.395 495.185 153.643C495.573 153.879 496.067 154.074 496.667 154.228C497.279 154.369 498.015 154.44 498.873 154.44C499.791 154.44 500.679 154.357 501.538 154.192C502.397 154.026 503.197 153.809 503.938 153.537C504.679 153.266 505.35 152.953 505.95 152.599C506.55 152.245 507.05 151.879 507.45 151.501V150.581C506.649 150.357 505.855 150.168 505.067 150.015C504.291 149.861 503.544 149.743 502.826 149.661C502.12 149.566 501.449 149.501 500.814 149.466C500.191 149.43 499.644 149.413 499.173 149.413C498.196 149.413 497.385 149.478 496.738 149.608C496.09 149.737 495.567 149.915 495.167 150.138C494.767 150.351 494.485 150.605 494.32 150.9C494.155 151.195 494.073 151.501 494.073 151.82ZM522.732 141.625H517.703V137.695H522.732V131.2H527.956V137.695H532.985V141.625H527.956V158.581H522.732V141.625ZM536.638 148.068C536.638 146.651 536.926 145.301 537.503 144.014C538.079 142.716 538.909 141.572 539.991 140.581C541.073 139.589 542.397 138.799 543.961 138.209C545.538 137.619 547.326 137.324 549.326 137.324C551.314 137.324 553.103 137.624 554.691 138.227C556.291 138.817 557.644 139.63 558.75 140.669C559.868 141.707 560.721 142.929 561.309 144.333C561.909 145.737 562.209 147.241 562.209 148.846C562.209 149.047 562.203 149.265 562.191 149.501C562.191 149.726 562.179 149.932 562.156 150.121H542.462C542.685 150.746 543.044 151.318 543.538 151.838C544.044 152.357 544.673 152.805 545.427 153.183C546.179 153.561 547.05 153.856 548.038 154.068C549.027 154.269 550.121 154.369 551.32 154.369C552.52 154.369 553.715 154.245 554.903 153.997C556.091 153.738 557.226 153.413 558.309 153.024L560.073 157.024C559.391 157.343 558.697 157.626 557.991 157.873C557.297 158.109 556.567 158.31 555.803 158.476C555.05 158.629 554.256 158.747 553.42 158.83C552.597 158.912 551.727 158.953 550.809 158.953C548.467 158.953 546.415 158.67 544.65 158.103C542.885 157.537 541.409 156.764 540.221 155.785C539.032 154.805 538.138 153.655 537.538 152.333C536.938 151.012 536.638 149.59 536.638 148.068ZM556.668 146.032C556.479 145.454 556.185 144.917 555.785 144.422C555.397 143.914 554.909 143.478 554.32 143.112C553.732 142.734 553.05 142.439 552.274 142.227C551.497 142.014 550.644 141.908 549.714 141.908C548.726 141.908 547.826 142.02 547.014 142.244C546.203 142.469 545.491 142.769 544.879 143.147C544.267 143.525 543.756 143.961 543.344 144.457C542.944 144.952 542.65 145.478 542.462 146.032H556.668Z" fill="#5C509C"/>
<path d="M54.7705 65.3351H35.0583V104.878H54.7705V65.3351Z" fill="#3E3178"/>
<path d="M81 86H62V105H81V86Z" fill="#3E3178"/>
<path d="M81.382 104.878V86.0949L71.5258 82.6349L61.6695 86.0949V104.878H81.382Z" fill="#4A3C85"/>
<path d="M79.4111 88.0718H75.4684V94.0032H79.4111V88.0718Z" fill="#FFFB98"/>
<path d="M40.9714 67.3122H37.029V73.2436H40.9714V67.3122Z" fill="white"/>
<path d="M40.9714 74.2321H37.029V80.1635H40.9714V74.2321Z" fill="#FFFB98"/>
<path d="M46.8853 88.0718H42.9428V94.0032H46.8853V88.0718Z" fill="#FFFB98"/>
<path d="M73.4974 88.0718H69.5548V94.0032H73.4974V88.0718Z" fill="white"/>
<path d="M40.9714 81.1526H37.029V87.084H40.9714V81.1526Z" fill="white"/>
<path d="M40.9714 88.0718H37.029V94.0032H40.9714V88.0718Z" fill="white"/>
<path d="M67.5838 88.0718H63.6411V94.0032H67.5838V88.0718Z" fill="white"/>
<path d="M40.9714 94.9917H37.029V100.923H40.9714V94.9917Z" fill="white"/>
<path d="M67.5838 94.9917H63.6411V100.923H67.5838V94.9917Z" fill="white"/>
<path d="M46.8853 74.2321H42.9428V80.1635H46.8853V74.2321Z" fill="white"/>
<path d="M46.8853 81.1526H42.9428V87.084H46.8853V81.1526Z" fill="white"/>
<path d="M46.8853 94.9917H42.9428V100.923H46.8853V94.9917Z" fill="white"/>
<path d="M73.4974 94.9917H69.5548V100.923H73.4974V94.9917Z" fill="white"/>
<path d="M52.799 67.3122H48.8566V73.2436H52.799V67.3122Z" fill="white"/>
<path d="M52.799 74.2321H48.8566V80.1635H52.799V74.2321Z" fill="white"/>
<path d="M52.799 81.1526H48.8566V87.084H52.799V81.1526Z" fill="white"/>
<path d="M52.799 88.0718H48.8566V94.0032H52.799V88.0718Z" fill="white"/>
<path d="M52.799 94.9917H48.8566V100.923H52.799V94.9917Z" fill="white"/>
<path d="M79.4111 94.9917H75.4684V100.923H79.4111V94.9917Z" fill="white"/>
<defs>
<linearGradient id="paint0_linear_12_31" x1="-3.3806" y1="80.0648" x2="588.573" y2="80.0648" gradientUnits="userSpaceOnUse">
<stop stop-color="#5C509C"/>
<stop offset="1" stop-color="#8B78C2"/>
</linearGradient>
<linearGradient id="paint1_linear_12_31" x1="-3.3806" y1="80.0648" x2="588.573" y2="80.0648" gradientUnits="userSpaceOnUse">
<stop stop-color="#5C509C"/>
<stop offset="1" stop-color="#8B78C2"/>
</linearGradient>
</defs>
</svg>
