<svg width="64" height="65" viewBox="0 0 64 65" fill="none" xmlns="http://www.w3.org/2000/svg">
<g clip-path="url(#clip0_24_3)">
<path d="M0 20.2504C0.000976626 24.9516 1.60686 29.507 4.54403 33.1404C7.48121 36.7739 11.568 39.2607 16.108 40.177C16.3666 37.2664 17.102 34.42 18.284 31.7554C14.78 30.5529 12.528 27.8229 12 23.9473H10V22.2167H11.864V20.4536C11.864 20.2667 11.864 20.0758 11.88 19.9051H10V18.1704H12.044C12.944 13.1004 16.852 10.0942 22.724 10.0942C23.988 10.0942 25.084 10.2201 26 10.4395V13.4173C24.9302 13.1756 23.8358 13.0637 22.74 13.0842C19.064 13.0842 16.588 14.9773 15.804 18.1704H23.472V19.9051H15.552C15.54 20.092 15.54 20.2992 15.54 20.5023V22.2167H23.472V23.9514H15.72C16.192 26.397 17.592 28.1358 19.74 28.9442C21.8462 25.4015 24.7427 22.4112 28.1959 20.2145C31.6491 18.0177 35.5624 16.676 39.62 16.2976C38.639 11.3638 35.8899 6.97528 31.9053 3.98222C27.9207 0.989159 22.9841 -0.395431 18.0518 0.0966528C13.1196 0.588736 8.54265 2.92247 5.20765 6.64579C1.87265 10.3691 0.0169479 15.217 0 20.2504ZM64 42.5942C64 48.5201 61.6822 54.2034 57.5564 58.3936C53.4305 62.5839 47.8348 64.938 42 64.938C36.1652 64.938 30.5695 62.5839 26.4437 58.3936C22.3179 54.2034 20 48.5201 20 42.5942C20 36.6683 22.3179 30.985 26.4437 26.7948C30.5695 22.6045 36.1652 20.2504 42 20.2504C47.8348 20.2504 53.4305 22.6045 57.5564 26.7948C61.6822 30.985 64 36.6683 64 42.5942ZM33 47.9648C33.276 51.357 35.984 53.9976 40.856 54.3104V56.813H43.016V54.2942C48.052 53.9448 51 51.2879 51 47.4286C51 43.9145 48.748 42.1067 44.72 41.1723L43.016 40.7661V33.9573C45.176 34.2011 46.552 35.367 46.88 36.9839H50.672C50.392 33.7176 47.556 31.1623 43.016 30.882V28.3754H40.856V30.9308C36.552 31.3492 33.624 33.9045 33.624 37.5201C33.624 40.7173 35.8 42.7526 39.424 43.5854L40.856 43.9308V51.162C38.64 50.837 37.176 49.6345 36.844 47.9648H33ZM40.84 40.2664C38.712 39.7789 37.56 38.7876 37.56 37.2926C37.56 35.627 38.804 34.3717 40.856 34.0061V40.2623H40.836L40.84 40.2664ZM43.328 44.5076C45.908 45.0967 47.1 46.0514 47.1 47.7414C47.1 49.667 45.62 50.9914 43.02 51.2351V44.4345L43.328 44.5076Z" fill="#D9D9D9"/>
</g>
<defs>
<clipPath id="clip0_24_3">
<rect width="64" height="65" fill="white" transform="translate(0 -0.000732422)"/>
</clipPath>
</defs>
</svg>
