<svg width="100" height="99" viewBox="0 0 100 99" fill="none" xmlns="http://www.w3.org/2000/svg">
<g clip-path="url(#clip0_60_169)">
<path d="M100 49.2288C100 62.2851 94.7322 74.8066 85.3553 84.0388C75.9785 93.271 63.2608 98.4576 50 98.4576C36.7392 98.4576 24.0215 93.271 14.6447 84.0388C5.26784 74.8066 0 62.2851 0 49.2288C0 36.1725 5.26784 23.651 14.6447 14.4188C24.0215 5.18659 36.7392 0 50 0C63.2608 0 75.9785 5.18659 85.3553 14.4188C94.7322 23.651 100 36.1725 100 49.2288ZM51.7937 36.3432C46.9312 38.3369 37.2062 42.4598 22.6313 48.7119C20.2688 49.6349 19.025 50.5457 18.9125 51.4318C18.725 52.9271 20.6313 53.5178 23.225 54.324L24.3188 54.6624C26.8687 55.4809 30.3062 56.4347 32.0875 56.4716C33.7125 56.5085 35.5187 55.8562 37.5125 54.5024C51.1312 45.4505 58.1625 40.8784 58.6 40.7799C58.9125 40.7061 59.35 40.6199 59.6375 40.8784C59.9312 41.1307 59.9 41.6168 59.8688 41.746C59.6813 42.5398 52.2 49.3826 48.3312 52.9271C47.125 54.0347 46.2687 54.8163 46.0938 54.9947C45.7084 55.3825 45.3167 55.764 44.9187 56.1393C42.5437 58.3915 40.7687 60.0776 45.0125 62.8344C47.0563 64.1636 48.6937 65.2528 50.325 66.3481C52.1 67.5419 53.875 68.7295 56.175 70.2187C56.7562 70.5879 57.3188 70.9879 57.8625 71.3694C59.9313 72.8217 61.8 74.1263 64.0938 73.917C65.4313 73.794 66.8125 72.5632 67.5125 68.8711C69.1687 60.1514 72.425 41.266 73.175 33.4817C73.2208 32.8346 73.1935 32.1845 73.0938 31.5433C73.0349 31.026 72.7806 30.5493 72.3812 30.208C71.8126 29.8215 71.1346 29.6213 70.4437 29.6357C68.5687 29.6665 65.675 30.6572 51.7937 36.3432Z" fill="#5D519D"/>
</g>
<defs>
<clipPath id="clip0_60_169">
<rect width="100" height="98.4576" fill="white"/>
</clipPath>
</defs>
</svg>
